<svg xmlns="http://www.w3.org/2000/svg"><defs><symbol id="icon-add" viewBox="0 0 40 40"><path d="M20 38.5C9.8 38.5 1.5 30.2 1.5 20S9.8 1.5 20 1.5 38.5 9.8 38.5 20 30.2 38.5 20 38.5z" fill="#98CCFD"/><path d="M20 2c9.926 0 18 8.074 18 18s-8.074 18-18 18S2 29.926 2 20 10.074 2 20 2m0-1C9.508 1 1 9.508 1 20s8.508 19 19 19 19-8.508 19-19S30.492 1 20 1z" fill="#4788C7"/><path d="M30 18h-8v-8h-4v8h-8v4h8v8h4v-8h8z" fill="#FFF"/></symbol><symbol id="icon-air" viewBox="0 0 48 48"><path d="M18 21.5c0 3.59-2.91 6.5-6.5 6.5S5 25.09 5 21.5 7.91 15 11.5 15s6.5 2.91 6.5 6.5zM42 21.5c0 3.59-2.91 6.5-6.5 6.5S29 25.09 29 21.5s2.91-6.5 6.5-6.5 6.5 2.91 6.5 6.5z" fill="#BBDEFB"/><path d="M11 28h25v-7H11z" fill="#BBDEFB"/><path d="M36 14c0 4.418-3.582 8-8 8s-8-3.582-8-8 3.582-8 8-8 8 3.582 8 8z" fill="#BBDEFB"/><path d="M23 15c0 3.313-2.688 6-6 6-3.313 0-6-2.688-6-6 0-3.316 2.688-6 6-6 3.313 0 6 2.684 6 6z" fill="#BBDEFB"/><path d="M30.668 19.652c0 3.543-2.875 6.414-6.418 6.414s-6.418-2.87-6.418-6.414c0-3.547 2.875-6.418 6.418-6.418s6.418 2.87 6.418 6.418z" fill="#BBDEFB"/><path d="M24 39c1.188 1.188 2 2 3 2s3-.332 3-2.48c0-1.602-1.2-2.344-1.734-2.512-.118-.094-5.66-.73-13.266-3.008l11.695.012s1.29-.047 1.992.04c1.375.178 2.653.97 3.446 2.112.79 1.148 1.054 2.625.734 3.973-.308 1.35-1.207 2.543-2.41 3.218-1.195.688-2.672.83-3.977.407C24.13 42.035 24 39 24 39z" fill="#64B5F6"/><path d="M22 13c-.113-2.277 1.578-5.37 4.11-6.438.64-.27 1.288-.425 2.03-.507.184-.047.73-.06 1.04-.055.355.008.718.03 1.078.09 1.457.187 2.832.902 3.996 1.863 2.375 1.93 3.574 5.375 2.855 8.54C36.456 19.694 34 24 28 24c-14 0-23-3-23-3l6.172-.39L23.54 20l3.09-.148 1.55-.075c.484-.01.96-.1 1.422-.23 1.863-.527 3.386-2.098 3.863-3.98.504-1.88-.06-4-1.445-5.387-1.356-1.41-3.49-2.012-5.395-1.54C23.345 9.78 22 13 22 13z" fill="#90CAF9"/><path d="M42.047 16.64c-.707-1.437-1.754-2.667-2.996-3.578-.667-.503-1.402-.89-2.17-1.175.374 1.16.51 2.406.378 3.636 1.496 1.39 2.3 3.473 2.086 5.5-.188 2.106-1.46 4.07-3.293 5.106-.91.526-1.948.815-2.99.874l-3.318.027L8 27s7.03 4 24.063 4c2.968 0 4.53-.598 5.972-1.453 2.903-1.71 4.817-4.883 4.957-8.207.07-1.594-.254-3.258-.945-4.7z" fill="#90CAF9"/></symbol><symbol id="icon-dust" viewBox="0 0 40 40"><path d="M4.5 7h-2c-.273 0-.5-.227-.5-.5s.227-.5.5-.5h2c.273 0 .5.227.5.5s-.227.5-.5.5zM9.5 7h-2c-.273 0-.5-.227-.5-.5s.227-.5.5-.5h2c.273 0 .5.227.5.5s-.227.5-.5.5zM14.5 7h-2c-.273 0-.5-.227-.5-.5s.227-.5.5-.5h2c.273 0 .5.227.5.5s-.227.5-.5.5zM19.5 7h-2c-.273 0-.5-.227-.5-.5s.227-.5.5-.5h2c.273 0 .5.227.5.5s-.227.5-.5.5zM24.5 7h-2c-.273 0-.5-.227-.5-.5s.227-.5.5-.5h2c.273 0 .5.227.5.5s-.227.5-.5.5zM7.5 10h-2c-.273 0-.5-.227-.5-.5s.227-.5.5-.5h2c.273 0 .5.227.5.5s-.227.5-.5.5zM12.5 10h-2c-.273 0-.5-.227-.5-.5s.227-.5.5-.5h2c.273 0 .5.227.5.5s-.227.5-.5.5zM17.5 10h-2c-.273 0-.5-.227-.5-.5s.227-.5.5-.5h2c.273 0 .5.227.5.5s-.227.5-.5.5zM22.5 10h-2c-.273 0-.5-.227-.5-.5s.227-.5.5-.5h2c.273 0 .5.227.5.5s-.227.5-.5.5zM27.5 10h-2c-.273 0-.5-.227-.5-.5s.227-.5.5-.5h2c.273 0 .5.227.5.5s-.227.5-.5.5zM29.5 7h-2c-.273 0-.5-.227-.5-.5s.227-.5.5-.5h2c.273 0 .5.227.5.5s-.227.5-.5.5zM34.5 7h-2c-.273 0-.5-.227-.5-.5s.227-.5.5-.5h2c.273 0 .5.227.5.5s-.227.5-.5.5zM32.5 10h-2c-.273 0-.5-.227-.5-.5s.227-.5.5-.5h2c.273 0 .5.227.5.5s-.227.5-.5.5zM37.5 10h-2c-.273 0-.5-.227-.5-.5s.227-.5.5-.5h2c.273 0 .5.227.5.5s-.227.5-.5.5z" fill="#DFF0FE"/><path d="M4.5 13h-2c-.273 0-.5-.227-.5-.5s.227-.5.5-.5h2c.273 0 .5.227.5.5s-.227.5-.5.5zM9.5 13h-2c-.273 0-.5-.227-.5-.5s.227-.5.5-.5h2c.273 0 .5.227.5.5s-.227.5-.5.5zM14.5 13h-2c-.273 0-.5-.227-.5-.5s.227-.5.5-.5h2c.273 0 .5.227.5.5s-.227.5-.5.5zM19.5 13h-2c-.273 0-.5-.227-.5-.5s.227-.5.5-.5h2c.273 0 .5.227.5.5s-.227.5-.5.5zM24.5 13h-2c-.273 0-.5-.227-.5-.5s.227-.5.5-.5h2c.273 0 .5.227.5.5s-.227.5-.5.5zM7.5 16h-2c-.273 0-.5-.227-.5-.5s.227-.5.5-.5h2c.273 0 .5.227.5.5s-.227.5-.5.5zM12.5 16h-2c-.273 0-.5-.227-.5-.5s.227-.5.5-.5h2c.273 0 .5.227.5.5s-.227.5-.5.5zM17.5 16h-2c-.273 0-.5-.227-.5-.5s.227-.5.5-.5h2c.273 0 .5.227.5.5s-.227.5-.5.5zM22.5 16h-2c-.273 0-.5-.227-.5-.5s.227-.5.5-.5h2c.273 0 .5.227.5.5s-.227.5-.5.5zM27.5 16h-2c-.273 0-.5-.227-.5-.5s.227-.5.5-.5h2c.273 0 .5.227.5.5s-.227.5-.5.5zM29.5 13h-2c-.273 0-.5-.227-.5-.5s.227-.5.5-.5h2c.273 0 .5.227.5.5s-.227.5-.5.5zM34.5 13h-2c-.273 0-.5-.227-.5-.5s.227-.5.5-.5h2c.273 0 .5.227.5.5s-.227.5-.5.5zM32.5 16h-2c-.273 0-.5-.227-.5-.5s.227-.5.5-.5h2c.273 0 .5.227.5.5s-.227.5-.5.5zM37.5 16h-2c-.273 0-.5-.227-.5-.5s.227-.5.5-.5h2c.273 0 .5.227.5.5s-.227.5-.5.5z" fill="#B6DCFE"/><path d="M4.5 19h-2c-.273 0-.5-.227-.5-.5s.227-.5.5-.5h2c.273 0 .5.227.5.5s-.227.5-.5.5zM9.5 19h-2c-.273 0-.5-.227-.5-.5s.227-.5.5-.5h2c.273 0 .5.227.5.5s-.227.5-.5.5zM14.5 19h-2c-.273 0-.5-.227-.5-.5s.227-.5.5-.5h2c.273 0 .5.227.5.5s-.227.5-.5.5zM19.5 19h-2c-.273 0-.5-.227-.5-.5s.227-.5.5-.5h2c.273 0 .5.227.5.5s-.227.5-.5.5zM24.5 19h-2c-.273 0-.5-.227-.5-.5s.227-.5.5-.5h2c.273 0 .5.227.5.5s-.227.5-.5.5zM7.5 22h-2c-.273 0-.5-.227-.5-.5s.227-.5.5-.5h2c.273 0 .5.227.5.5s-.227.5-.5.5zM12.5 22h-2c-.273 0-.5-.227-.5-.5s.227-.5.5-.5h2c.273 0 .5.227.5.5s-.227.5-.5.5zM17.5 22h-2c-.273 0-.5-.227-.5-.5s.227-.5.5-.5h2c.273 0 .5.227.5.5s-.227.5-.5.5zM22.5 22h-2c-.273 0-.5-.227-.5-.5s.227-.5.5-.5h2c.273 0 .5.227.5.5s-.227.5-.5.5zM27.5 22h-2c-.273 0-.5-.227-.5-.5s.227-.5.5-.5h2c.273 0 .5.227.5.5s-.227.5-.5.5zM29.5 19h-2c-.273 0-.5-.227-.5-.5s.227-.5.5-.5h2c.273 0 .5.227.5.5s-.227.5-.5.5zM34.5 19h-2c-.273 0-.5-.227-.5-.5s.227-.5.5-.5h2c.273 0 .5.227.5.5s-.227.5-.5.5zM32.5 22h-2c-.273 0-.5-.227-.5-.5s.227-.5.5-.5h2c.273 0 .5.227.5.5s-.227.5-.5.5zM37.5 22h-2c-.273 0-.5-.227-.5-.5s.227-.5.5-.5h2c.273 0 .5.227.5.5s-.227.5-.5.5zM4.5 25h-2c-.273 0-.5-.227-.5-.5s.227-.5.5-.5h2c.273 0 .5.227.5.5s-.227.5-.5.5zM9.5 25h-2c-.273 0-.5-.227-.5-.5s.227-.5.5-.5h2c.273 0 .5.227.5.5s-.227.5-.5.5zM14.5 25h-2c-.273 0-.5-.227-.5-.5s.227-.5.5-.5h2c.273 0 .5.227.5.5s-.227.5-.5.5zM19.5 25h-2c-.273 0-.5-.227-.5-.5s.227-.5.5-.5h2c.273 0 .5.227.5.5s-.227.5-.5.5zM24.5 25h-2c-.273 0-.5-.227-.5-.5s.227-.5.5-.5h2c.273 0 .5.227.5.5s-.227.5-.5.5z" fill="#98CCFD"/><path d="M7.5 28h-2c-.273 0-.5-.227-.5-.5s.227-.5.5-.5h2c.273 0 .5.227.5.5s-.227.5-.5.5zM12.5 28h-2c-.273 0-.5-.227-.5-.5s.227-.5.5-.5h2c.273 0 .5.227.5.5s-.227.5-.5.5zM17.5 28h-2c-.273 0-.5-.227-.5-.5s.227-.5.5-.5h2c.273 0 .5.227.5.5s-.227.5-.5.5zM22.5 28h-2c-.273 0-.5-.227-.5-.5s.227-.5.5-.5h2c.273 0 .5.227.5.5s-.227.5-.5.5zM27.5 28h-2c-.273 0-.5-.227-.5-.5s.227-.5.5-.5h2c.273 0 .5.227.5.5s-.227.5-.5.5z" fill="#4788C7"/><path d="M29.5 25h-2c-.273 0-.5-.227-.5-.5s.227-.5.5-.5h2c.273 0 .5.227.5.5s-.227.5-.5.5zM34.5 25h-2c-.273 0-.5-.227-.5-.5s.227-.5.5-.5h2c.273 0 .5.227.5.5s-.227.5-.5.5z" fill="#98CCFD"/><path d="M32.5 28h-2c-.273 0-.5-.227-.5-.5s.227-.5.5-.5h2c.273 0 .5.227.5.5s-.227.5-.5.5zM37.5 28h-2c-.273 0-.5-.227-.5-.5s.227-.5.5-.5h2c.273 0 .5.227.5.5s-.227.5-.5.5zM4.5 31h-2c-.273 0-.5-.227-.5-.5s.227-.5.5-.5h2c.273 0 .5.227.5.5s-.227.5-.5.5zM9.5 31h-2c-.273 0-.5-.227-.5-.5s.227-.5.5-.5h2c.273 0 .5.227.5.5s-.227.5-.5.5zM14.5 31h-2c-.273 0-.5-.227-.5-.5s.227-.5.5-.5h2c.273 0 .5.227.5.5s-.227.5-.5.5zM19.5 31h-2c-.273 0-.5-.227-.5-.5s.227-.5.5-.5h2c.273 0 .5.227.5.5s-.227.5-.5.5zM24.5 31h-2c-.273 0-.5-.227-.5-.5s.227-.5.5-.5h2c.273 0 .5.227.5.5s-.227.5-.5.5zM7.5 34h-2c-.273 0-.5-.227-.5-.5s.227-.5.5-.5h2c.273 0 .5.227.5.5s-.227.5-.5.5zM12.5 34h-2c-.273 0-.5-.227-.5-.5s.227-.5.5-.5h2c.273 0 .5.227.5.5s-.227.5-.5.5zM17.5 34h-2c-.273 0-.5-.227-.5-.5s.227-.5.5-.5h2c.273 0 .5.227.5.5s-.227.5-.5.5zM22.5 34h-2c-.273 0-.5-.227-.5-.5s.227-.5.5-.5h2c.273 0 .5.227.5.5s-.227.5-.5.5zM27.5 34h-2c-.273 0-.5-.227-.5-.5s.227-.5.5-.5h2c.273 0 .5.227.5.5s-.227.5-.5.5zM29.5 31h-2c-.273 0-.5-.227-.5-.5s.227-.5.5-.5h2c.273 0 .5.227.5.5s-.227.5-.5.5zM34.5 31h-2c-.273 0-.5-.227-.5-.5s.227-.5.5-.5h2c.273 0 .5.227.5.5s-.227.5-.5.5zM32.5 34h-2c-.273 0-.5-.227-.5-.5s.227-.5.5-.5h2c.273 0 .5.227.5.5s-.227.5-.5.5zM37.5 34h-2c-.273 0-.5-.227-.5-.5s.227-.5.5-.5h2c.273 0 .5.227.5.5s-.227.5-.5.5z" fill="#4788C7"/></symbol><symbol id="icon-fabric-2" viewBox="0 0 40 40"><path d="M36 20c0 8.836-7.164 16-16 16S4 28.836 4 20 11.164 4 20 4s16 7.164 16 16z" fill="#DFF0FE"/><path d="M10 8h2v3h-2zM14 8h2v3h-2zM18 8h2v3h-2zM22 8h2v3h-2zM26 8h2v3h-2zM10 18h2v3h-2zM6 18h2v3H6zM14 18h2v3h-2zM18 18h2v3h-2zM22 18h2v3h-2zM26 18h2v3h-2zM30 18h2v3h-2zM10 28h2v3h-2zM14 28h2v3h-2zM18 28h2v3h-2zM22 28h2v3h-2zM26 28h2v3h-2zM30 28h2v1.645c0 .75-.605 1.355-1.355 1.355H30zM12 13h2v3h-2zM16 13h2v3h-2zM20 13h2v3h-2zM24 13h2v3h-2zM28 13h2v3h-2zM32 13h2v3h-2zM8 13h2v3H8zM12 23h2v3h-2zM16 23h2v3h-2zM20 23h2v3h-2zM24 23h2v3h-2zM28 23h2v3h-2zM32 23h2v3h-2zM8 23h2v3H8z" fill="#98CCFD"/><path d="M0 40h2.453l7.754-7.996L8 29.578l-8 8z" fill="#B6DCFE"/><path d="M20 5c8.41 0 15 6.59 15 15s-6.59 15-15 15S5 28.41 5 20 11.59 5 20 5m0-1C11.008 4 4 11.008 4 20s7.008 16 16 16 16-7.008 16-16S28.992 4 20 4z" fill="#4788C7"/><path d="M2.504 40c-.125 0-.25-.047-.348-.145-.2-.19-.203-.507-.008-.707l8.16-8.35c.192-.2.508-.2.708-.01.2.192.203.51.007.708l-8.16 8.356c-.097.097-.226.148-.36.148zM.5 38c-.125 0-.254-.047-.352-.145-.195-.19-.2-.507-.007-.707l8.165-8.35c.19-.2.508-.2.707-.01.195.192.2.51.008.708L.855 37.852C.762 37.95.63 38 .5 38z" fill="#4788C7"/><path d="M20 7c7.29 0 13 5.71 13 13s-5.71 13-13 13S7 27.29 7 20 12.71 7 20 7m0-2C11.566 5 5 11.566 5 20c0 8.434 6.566 15 15 15 8.434 0 15-6.566 15-15 0-8.434-6.566-15-15-15z" fill="#FFF"/></symbol><symbol id="icon-fabric" viewBox="0 0 40 40"><path d="M2.5 2.5h35v35h-35z" fill="#98CCFD"/><path d="M37 3v34H3V3h34m1-1H2v36h36z" fill="#4788C7"/><path d="M2 7V6h36v1zM2 9.008h36V10H2zM2 12.008h36V13H2zM2 15.008h36V16H2zM2 18.008h36V19H2zM2 21.008h36V22H2zM2 24.008h36V25H2zM2 27.008h36V28H2zM2 30.008h36V31H2zM2 33.008h36V34H2z" fill="#4788C7"/><path d="M34 6h-1V3h1zM34 12h-1V7h1zM34 18h-1v-5h1zM34 24h-1v-5h1zM34 30h-1v-5h1zM34 37h-1v-6h1zM30 34h1v3h-1zM30 28h1v5h-1zM30 22h1v5h-1zM30 16h1v5h-1zM30 10h1v5h-1zM30 3h1v6h-1zM28 6h-1V3h1zM28 12h-1V7h1zM28 18h-1v-5h1zM28 24h-1v-5h1zM28 30h-1v-5h1zM28 37h-1v-6h1zM24 34h1v3h-1zM24 28h1v5h-1zM24 22h1v5h-1zM24 16h1v5h-1zM24 10h1v5h-1zM24 3h1v6h-1zM22 6h-1V3h1zM22 12h-1V7h1zM22 18h-1v-5h1zM22 24h-1v-5h1zM22 30h-1v-5h1zM22 37h-1v-6h1zM18 34h1v3h-1zM18 28h1v5h-1zM18 22h1v5h-1zM18 16h1v5h-1zM18 10h1v5h-1zM18 3h1v6h-1zM16 6h-1V3h1zM16 12h-1V7h1zM16 18h-1v-5h1zM16 24h-1v-5h1zM16 30h-1v-5h1zM16 37h-1v-6h1zM12 34h1v3h-1zM12 28h1v5h-1zM12 22h1v5h-1zM12 16h1v5h-1zM12 10h1v5h-1zM12 3h1v6h-1zM10 6H9V3h1zM10 12H9V7h1zM10 18H9v-5h1zM10 24H9v-5h1zM10 30H9v-5h1zM10 37H9v-6h1zM6 34h1v3H6zM6 28h1v5H6zM6 22h1v5H6zM6 16h1v5H6zM6 10h1v5H6zM6 3h1v6H6z" fill="#DFF0FE"/></symbol><symbol id="icon-laser-beam" viewBox="0 0 48 48"><path d="M34 24c0 5.523-4.477 10-10 10s-10-4.477-10-10 4.477-10 10-10 10 4.477 10 10z" fill="#81D4FA"/><path d="M28 24c0 2.21-1.79 4-4 4s-4-1.79-4-4 1.79-4 4-4 4 1.79 4 4z" fill="#3F51B5"/><path d="M22 4v20h4V4z" fill="#3F51B5"/><path d="M22 34h4v10h-4zM32 22h12v4H32zM4 22h12v4H4zM11.195 33.977l4.383-4.383 2.828 2.828-4.383 4.387zM29.586 15.586l8.2-8.203 2.83 2.832-8.202 8.2zM29.23 32.086l2.83-2.828 8.342 8.344-2.828 2.828zM9.926 12.723l2.828-2.828 7.074 7.07L17 19.793z" fill="#81D4FA"/></symbol><symbol id="icon-menu-vertical" viewBox="0 0 40 40"><circle cx="20" cy="20" r="3.5" fill="#C2E8FF"/><path d="M20 17c1.654 0 3 1.346 3 3s-1.346 3-3 3-3-1.346-3-3 1.346-3 3-3m0-1c-2.21 0-4 1.79-4 4s1.79 4 4 4 4-1.79 4-4-1.79-4-4-4z" fill="#7496C4"/><circle cx="20" cy="7" r="3.5" fill="#C2E8FF"/><path d="M20 4c1.654 0 3 1.346 3 3s-1.346 3-3 3-3-1.346-3-3 1.346-3 3-3m0-1c-2.21 0-4 1.79-4 4s1.79 4 4 4 4-1.79 4-4-1.79-4-4-4z" fill="#7496C4"/><g><circle cx="20" cy="33" r="3.5" fill="#C2E8FF"/><path d="M20 30c1.654 0 3 1.346 3 3s-1.346 3-3 3-3-1.346-3-3 1.346-3 3-3m0-1c-2.21 0-4 1.79-4 4s1.79 4 4 4 4-1.79 4-4-1.79-4-4-4z" fill="#7496C4"/></g></symbol><symbol id="icon-minus" viewBox="0 0 40 40"><path d="M20 38.5C9.8 38.5 1.5 30.2 1.5 20S9.8 1.5 20 1.5 38.5 9.8 38.5 20 30.2 38.5 20 38.5z" fill="#F78F8F"/><path d="M20 2c9.925 0 18 8.075 18 18s-8.075 18-18 18S2 29.925 2 20 10.075 2 20 2m0-1C9.507 1 1 9.507 1 20s8.507 19 19 19 19-8.507 19-19S30.493 1 20 1z" fill="#C74343"/><path fill="#FFF" d="M10 18h20v4H10z"/></symbol><symbol id="icon-new" viewBox="0 0 40 40"><path d="M20 38.37c-.164 0-.316-.054-.445-.155l-3.414-2.8-4.335.89c-.05.01-.098.015-.145.015-.277 0-.527-.168-.64-.43l-1.727-4.066-4.246-1.226c-.317-.09-.527-.4-.5-.727l.36-4.405-3.192-3.06c-.238-.23-.285-.596-.106-.878l2.367-3.73-1.407-4.195c-.105-.313.028-.66.317-.825l3.828-2.207.703-4.363c.055-.328.332-.574.66-.59l4.418-.172 2.652-3.54c.13-.17.34-.276.56-.276.104 0 .202.022.3.065L20 3.595l3.992-1.9c.094-.043.195-.066.297-.066.218 0 .43.1.562.276l2.648 3.54 4.418.17c.328.017.61.263.664.59l.703 4.36 3.832 2.21c.285.165.418.513.313.826l-1.403 4.19 2.364 3.735c.18.278.133.65-.105.875l-3.19 3.063.358 4.406c.027.33-.183.638-.504.728l-4.247 1.226-1.726 4.067c-.11.258-.364.43-.637.43-.047 0-.094-.008-.14-.015l-4.34-.89-3.42 2.8c-.124.1-.276.156-.44.156z" fill="#98CCFD"/><path d="M24.29 2.13c.062 0 .12.026.16.077l2.507 3.348.285.38.477.018 4.175.164c.097.004.175.078.19.168l.67 4.13.073.468.414.238 3.625 2.09c.082.048.117.145.09.235L35.63 17.41l-.153.45.253.402 2.24 3.53c.05.083.038.188-.032.255l-3.02 2.89-.344.333.04.472.34 4.168c.01.098-.052.18-.142.207l-4.015 1.16-.457.13-.188.44-1.632 3.848c-.036.078-.106.117-.204.117h-.02l-4.1-.84-.466-.093-.367.3-3.234 2.644c-.04.03-.083.047-.13.047s-.09-.015-.125-.046L16.64 35.18l-.367-.3-.468.093-4.145.843c-.074 0-.144-.05-.176-.12l-1.636-3.848-.184-.442-.457-.13-4.016-1.16c-.088-.026-.15-.112-.143-.206l.34-4.168.04-.476-.35-.328-3.018-2.895c-.068-.063-.08-.168-.03-.246l2.24-3.535.253-.403-.148-.45-1.332-3.965c-.027-.09.008-.187.09-.234l3.625-2.09.414-.237.074-.47.668-4.128c.016-.094.09-.164.188-.168l4.175-.164.477-.02.285-.378 2.507-3.344c.04-.054.098-.08.16-.08.03 0 .06.003.086.018l3.777 1.797.43.203.43-.203 3.78-1.8c.024-.012.052-.016.08-.016m0-1c-.177 0-.35.034-.513.116L20 3.043l-3.777-1.797c-.164-.082-.34-.117-.512-.117-.37 0-.73.17-.964.48l-2.508 3.343-4.18.164c-.566.024-1.042.446-1.132 1.008l-.668 4.13-3.62 2.09c-.497.284-.724.878-.54 1.417l1.328 3.965-2.239 3.535c-.304.48-.23 1.11.184 1.504l3.02 2.894-.34 4.168c-.046.57.313 1.094.86 1.25l4.02 1.16 1.633 3.848c.19.445.628.734 1.097.734.082 0 .164-.01.246-.027l4.102-.84 3.234 2.65c.223.178.488.268.758.268s.54-.09.762-.268l3.234-2.65 4.102.84c.082.017.164.028.242.028.47 0 .906-.285 1.098-.734l1.636-3.848 4.016-1.16c.55-.156.91-.68.863-1.246l-.34-4.172 3.02-2.89c.41-.395.484-1.028.183-1.508l-2.242-3.535 1.332-3.965c.18-.54-.047-1.133-.54-1.418l-3.624-2.09-.668-4.13c-.094-.56-.566-.98-1.136-1.003l-4.18-.167-2.508-3.348c-.234-.308-.594-.476-.96-.476z" fill="#4788C7"/><path d="M13.785 24h-1.45l-3.823-5.88c-.098-.147-.176-.304-.24-.464H8.24c.032.172.043.54.043 1.102V24H7v-8h1.547l3.69 5.742c.158.238.26.403.302.488h.023c-.04-.21-.06-.57-.06-1.074V16h1.278v8zM20.492 24H16v-8h4.313v1.13h-2.985v2.26h2.75v1.122h-2.75v2.367h3.16V24zM32.79 16l-2.192 8h-1.5l-1.524-5.598c-.062-.238-.1-.496-.117-.78h-.023c-.02.265-.063.523-.133.773L25.77 24h-1.532L22 16h1.457l1.45 5.86c.058.242.097.5.113.77h.027c.015-.192.066-.446.156-.77l1.64-5.86h1.368l1.517 5.902c.05.2.09.438.117.715h.02c.01-.187.054-.433.128-.738L31.418 16z" fill="#FFF"/></symbol><symbol id="icon-online-shop" viewBox="0 0 128 128"><path d="M96.1 17.5h-64c-5.5 0-10 4.5-10 10v73c0 5.5 4.5 10 10 10h64c5.5 0 10-4.5 10-10v-73c0-5.5-4.5-10-10-10" fill="#FFF"/><path fill="#E6E7E7" d="M105 38.6H23v39.7h82V38.6"/><path d="M96.1 17.5h-64c-5.5 0-10 4.5-10 10v11h84v-11c0-5.5-4.5-10-10-10z" fill="#B5D2E5"/><path d="M106.1 41.5h-84c-1.7 0-3-1.3-3-3s1.3-3 3-3h84c1.7 0 3 1.3 3 3s-1.3 3-3 3z" fill="#454B54"/><path d="M96.1 113.5h-64c-7.2 0-13-5.8-13-13v-73c0-7.2 5.8-13 13-13h64c7.2 0 13 5.8 13 13v73c0 7.2-5.8 13-13 13zm-64-93c-3.9 0-7 3.1-7 7v73c0 3.9 3.1 7 7 7h64c3.9 0 7-3.1 7-7v-73c0-3.9-3.1-7-7-7h-64z" fill="#454B54"/><circle cx="32.1" cy="28.5" r="3" fill="#454B54"/><circle cx="42.1" cy="28.5" r="3" fill="#454B54"/><circle cx="52.1" cy="28.5" r="3" fill="#454B54"/><path d="M105 41.6H23c-1.7 0-3-1.3-3-3s1.3-3 3-3h82c1.7 0 3 1.3 3 3s-1.4 3-3 3z" fill="#454B54"/><path d="M115.6 52.3v8c0 2.8-2.2 5-5 5H17.4c-2.8 0-5-2.2-5-5v-8l10.4-14h82.4l10.4 14z" fill="#F48884"/><path d="M115.6 52.3v8c0 2.8-2.2 5-5 5H17.4c-2.8 0-5-2.2-5-5v-8h103.2z" fill="#F48884"/><path d="M22.6 68.3h-5.2c-1.7 0-3-1.3-3-3s1.3-3 3-3h5.2c1.7 0 3 1.3 3 3s-1.3 3-3 3zM69.1 68.3H58.9c-1.7 0-3-1.3-3-3s1.3-3 3-3h10.2c1.7 0 3 1.3 3 3s-1.3 3-3 3zM45.1 68.3H34.9c-1.7 0-3-1.3-3-3s1.3-3 3-3h10.2c1.7 0 3 1.3 3 3s-1.3 3-3 3zM93.1 68.3H82.9c-1.7 0-3-1.3-3-3s1.3-3 3-3h10.2c1.7 0 3 1.3 3 3s-1.3 3-3 3zM110.6 68.3h-5.2c-1.7 0-3-1.3-3-3s1.3-3 3-3h5.2c1.7 0 3 1.3 3 3s-1.3 3-3 3z" fill="#454B54"/><path d="M31.5 55c-.5 0-.9-.1-1.3-.3-1.5-.7-2.1-2.5-1.3-4L35.8 37c.7-1.5 2.5-2.1 4-1.3 1.5.7 2.1 2.5 1.3 4l-6.9 13.7c-.5 1-1.6 1.6-2.7 1.6zM97.4 55c-1.1 0-2.2-.6-2.7-1.7l-6.9-13.7c-.7-1.5-.1-3.3 1.3-4 1.5-.7 3.3-.2 4 1.3l6.9 13.7c.7 1.5.1 3.3-1.3 4-.4.3-.8.4-1.3.4zM76 55c-1.4 0-2.6-.9-2.9-2.3L70 38.9c-.4-1.6.7-3.2 2.3-3.6 1.6-.4 3.2.6 3.6 2.3L79 51.3c.4 1.6-.7 3.2-2.3 3.6-.2.1-.4.1-.7.1zM52 55c-.2 0-.4 0-.6-.1-1.6-.3-2.7-1.9-2.3-3.6L52 37.7c.3-1.6 1.9-2.7 3.6-2.3 1.6.3 2.7 1.9 2.3 3.6L55 52.6c-.3 1.4-1.6 2.4-3 2.4z" fill="#FFF"/><path d="M110.6 68.3c-1.7 0-3-1.3-3-3s1.3-3 3-3c1.1 0 2-.9 2-2v-7l-8.9-12H24.3l-8.9 12v7c0 1.1.9 2 2 2 1.7 0 3 1.3 3 3s-1.3 3-3 3c-4.4 0-8-3.6-8-8v-8c0-.6.2-1.3.6-1.8l10.4-14c.6-.8 1.5-1.2 2.4-1.2h82.4c.9 0 1.8.4 2.4 1.2l10.4 14c.4.5.6 1.1.6 1.8v8c0 4.4-3.6 8-8 8z" fill="#454B54"/><path d="M115.6 55.3H13.5c-1.7 0-3-1.3-3-3s1.3-3 3-3h102.1c1.7 0 3 1.3 3 3s-1.3 3-3 3z" fill="#454B54"/></symbol><symbol id="icon-particle" viewBox="0 0 48 48"><path d="M7.516 39l-1.5-2.5 1.5-2.5h3l1.5 2.5-1.5 2.5zM24.266 32l-1.25-2 1.25-2h2.5l1.25 2-1.25 2zM19.516 16l-1.5-2.5 1.5-2.5h3l1.5 2.5-1.5 2.5zM37.516 29l-1.5-2.5 1.5-2.5h3l1.5 2.5-1.5 2.5zM31.63 33l-.614-1 .613-1h1.225l.61 1-.61 1zM9.766 15l-.75-1.227.75-1.222h1.5l.75 1.223-.75 1.227z" fill="#3949AB"/><path d="M10.766 24l-1.75-3 1.75-3h3.5l1.75 3-1.75 3zM21.766 42l-1.75-3 1.75-3h3.5l1.75 3-1.75 3zM28.516 23l-2.5-4.5 2.5-4.5h5l2.5 4.5-2.5 4.5z" fill="#1E88E5"/><path d="M11.555 37l-3.54-6 3.54-6h6.925l3.536 6-3.536 6zM32.016 17l-3-5.547 3-5.453h7l3 5.453-3 5.547z" fill="#64B5F6"/></symbol><symbol id="icon-remove" viewBox="0 0 40 40"><path fill="#F78F8F" d="M21 24.15L8.857 36.293l-4.15-4.15L16.85 20 4.707 7.857l4.15-4.15L21 15.85 33.143 3.707l4.15 4.15L25.15 20l12.143 12.143-4.15 4.15"/><path d="M33.143 4.414l3.443 3.443L25.15 19.293l-.707.707.707.707 11.436 11.436-3.443 3.443L21.707 24.15 21 23.443l-.707.707L8.857 35.586l-3.443-3.443L16.85 20.707l.707-.707-.707-.707L5.414 7.857l3.443-3.443L20.293 15.85l.707.707.707-.707L33.143 4.414m0-1.414L21 15.143 8.857 3 4 7.857 16.143 20 4 32.143 8.857 37 21 24.857 33.143 37 38 32.143 25.857 20 38 7.857 33.143 3z" fill="#C74343"/></symbol><symbol id="icon-right-arrow" viewBox="0 0 40 40"><path fill="#DCD5F2" d="M29.5 22.5H.5v-5h29v-7.293L39.293 20 29.5 29.793"/><path d="M30 11.414L38.586 20 30 28.586V22H1v-4h29v-6.586M29 9v8H0v6h29v8l11-11L29 9z" fill="#8B75A1"/></symbol><symbol id="icon-shopping-bag" viewBox="0 0 40 40"><path d="M4.5 1.5h31v37h-31z" fill="#98CCFD"/><path d="M35 2v36H5V2h30m1-1H4v38h32z" fill="#4788C7"/><path d="M28 6.5c0 .828-.672 1.5-1.5 1.5S25 7.328 25 6.5 25.672 5 26.5 5s1.5.672 1.5 1.5zM15 6.5c0 .828-.672 1.5-1.5 1.5S12 7.328 12 6.5 12.672 5 13.5 5s1.5.672 1.5 1.5z" fill="#4788C7"/><path d="M26.5 6.5V10c0 3.59-2.91 6.5-6.5 6.5s-6.5-2.91-6.5-6.5V6.5" fill="none" stroke-linecap="round" stroke-linejoin="round" stroke="#FFF" stroke-miterlimit="10"/></symbol><symbol id="icon-temperature-sensitive" viewBox="0 0 64 64"><path d="M45 50c0 7.68-6.66 13.8-14.51 12.91-5.84-.65-10.6-5.31-11.37-11.14-.66-4.98 1.51-9.5 5.12-12.19.49-.36.76-.95.76-1.56V8c0-3.87 3.13-7 7-7h.22C36.05 1.12 39 4.46 39 8.29v29.72c0 .61.26 1.2.75 1.57C42.93 41.95 45 45.73 45 50z" fill="#ED7899"/><path fill="#E0678F" d="M25 19h6.96v17.962H25z"/><path d="M45 50c0 3.92-1.73 7.43-4.48 9.81l-.97-.97c-1.26-1.26-1.586-3.23-.673-4.758C39.59 52.886 40 51.49 40 50c0-1.996-.738-3.826-1.953-5.23-1.08-1.248-1.375-2.988-.648-4.468l.84-1.712C42.27 40.8 45 45.08 45 50z" fill="#EF8EB1"/><path d="M39 8.29V17l-14 1.94V8c0-3.86 3.11-6.98 6.96-7h.26C36.05 1.12 39 4.46 39 8.29z" fill="#85CBF8"/><path d="M31.96 8.83v11.13H25V9c0-.214.01-.427.028-.636.388-4.324 6.932-3.876 6.932.465z" fill="#7BBEEB"/><path d="M7 29h8.23c1.812 0 3.59-.493 5.145-1.425l25.25-15.15C47.18 11.493 48.957 11 50.77 11H57c1.105 0 2-.895 2-2s-.895-2-2-2h-7.23c-1.812 0-3.59.493-5.145 1.425l-25.25 15.15C17.82 24.507 16.043 25 14.23 25H7c-1.105 0-2 .895-2 2s.895 2 2 2z" fill="#F9DD8F"/><g fill="#8D6C9F"><path d="M38.002 53.604c-.285.473-.132 1.087.34 1.373.162.097.34.143.516.143.34 0 .67-.172.858-.484.84-1.397 1.284-3 1.284-4.636 0-.58-.056-1.16-.165-1.725-.105-.542-.63-.898-1.172-.792-.542.105-.897.63-.792 1.172.087.44.13.893.13 1.345 0 1.273-.345 2.52-.998 3.604zM35.545 42.757c-.303.462-.174 1.082.288 1.384.476.313.913.683 1.3 1.1.197.213.465.32.733.32.244 0 .487-.088.68-.267.405-.375.43-1.008.054-1.413-.497-.536-1.06-1.01-1.67-1.412-.462-.302-1.08-.173-1.385.29z"/><path d="M57 6h-7.23c-1.99 0-3.95.54-5.66 1.57L40 10.04V8.29C40 3.85 36.52.13 32.25 0c-2.19-.06-4.25.74-5.82 2.26C24.86 3.78 24 5.82 24 8v11.64l-5.14 3.08c-1.4.84-3 1.28-4.63 1.28H7c-1.65 0-3 1.35-3 3s1.35 3 3 3h8.23c1.99 0 3.95-.54 5.66-1.57L24 26.56v11.46c0 .31-.13.59-.35.76-4.14 3.08-6.2 7.99-5.52 13.12.82 6.25 5.97 11.3 12.24 12.01.54.06 1.07.09 1.6.09 3.44 0 6.78-1.26 9.35-3.56C44.3 57.79 46 53.98 46 50c0-4.46-2.06-8.55-5.65-11.22-.22-.17-.35-.45-.35-.77V16.96l6.14-3.68c1.4-.84 3-1.28 4.63-1.28H57c1.65 0 3-1.35 3-3s-1.35-3-3-3zm-31 8.96h2.96c.553 0 1-.447 1-1s-.447-1-1-1H26v-3h4.96c.553 0 1-.447 1-1s-.447-1-1-1H26c.01-1.63.66-3.14 1.82-4.27C28.95 2.6 30.43 2 32 2h.19c3.2.1 5.81 2.92 5.81 6.29v2.95l-12 7.2v-3.48zm13.16 25.42C42.23 42.67 44 46.18 44 50c0 3.41-1.46 6.68-4.01 8.95-2.58 2.31-5.92 3.36-9.39 2.97-5.37-.61-9.78-4.93-10.49-10.28-.58-4.41 1.18-8.62 4.73-11.26.73-.54 1.16-1.42 1.16-2.36v-.06h4.96c.553 0 1-.447 1-1s-.447-1-1-1H26v-3h2.96c.553 0 1-.447 1-1s-.447-1-1-1H26v-3h4.96c.553 0 1-.447 1-1s-.447-1-1-1H26v-.6l12-7.2v19.85c0 .95.43 1.83 1.16 2.37zM57 10h-6.23c-1.99 0-3.95.54-5.66 1.57L40 14.64l-2 1.2-12 7.2-2 1.2-4.14 2.48c-1.4.84-3 1.28-4.63 1.28H7c-.55 0-1-.45-1-1s.45-1 1-1h7.23c1.99 0 3.95-.54 5.66-1.57L24 21.96l2-1.2 12-7.2 2-1.2 5.14-3.08c1.4-.84 3-1.28 4.63-1.28H57c.55 0 1 .45 1 1s-.45 1-1 1z"/></g></symbol></defs></svg>