<?xml version="1.0" encoding="utf-8"?>
<!-- Svg Vector Icons : http://www.onlinewebfonts.com/icon -->
<!DOCTYPE svg PUBLIC "-//W3C//DTD SVG 1.1//EN" "http://www.w3.org/Graphics/SVG/1.1/DTD/svg11.dtd">
<svg version="1.1" xmlns="http://www.w3.org/2000/svg" xmlns:xlink="http://www.w3.org/1999/xlink" x="0px" y="0px" viewBox="0 0 1000 1000" enable-background="new 0 0 1000 1000" xml:space="preserve">
<metadata> Svg Vector Icons : http://www.onlinewebfonts.com/icon </metadata>
<g><path d="M155.5,600.8c-57.1,0-91.7-10.6-115.6-19.9c-13.2-5.1-19.7-19.9-14.6-33.1c5.1-13.2,19.9-19.7,33.1-14.6c20.9,8.1,48.7,16.4,97,16.4c63.2,0,94.1-14.3,126.9-29.5c36.3-16.8,73.9-34.2,148.4-34.2c57,0,91.7,10.6,115.6,19.9c13.2,5.1,19.7,19.9,14.6,33.1c-5.1,13.2-19.9,19.7-33.1,14.6c-20.9-8.1-48.8-16.4-97-16.4c-63.2,0-94.1,14.3-126.9,29.5C267.5,583.4,230,600.8,155.5,600.8z"/><path d="M155.5,755.2c-57,0-91.7-10.6-115.6-19.9c-13.2-5.1-19.7-19.9-14.6-33.1c5.1-13.2,19.9-19.7,33.1-14.6c20.9,8.1,48.8,16.4,97,16.4c63.2,0,94.1-14.3,126.9-29.5c36.3-16.8,73.9-34.2,148.4-34.2c57.1,0,91.8,10.6,115.6,19.9c13.2,5.1,19.7,19.9,14.6,33.1c-5.1,13.2-20,19.7-33.1,14.6c-20.9-8.1-48.7-16.4-97-16.4c-63.2,0-94.1,14.3-126.9,29.5C267.5,737.8,230,755.2,155.5,755.2z"/><path d="M155.5,909.6c-57,0-91.7-10.6-115.6-19.9c-13.2-5.1-19.7-19.9-14.6-33.1c5.1-13.2,19.9-19.7,33.1-14.6c20.9,8.1,48.8,16.4,97,16.4c63.2,0,94.1-14.3,126.9-29.5c36.3-16.8,73.9-34.2,148.4-34.2c57,0,91.7,10.6,115.6,19.9c13.2,5.1,19.7,19.9,14.6,33.1c-5.1,13.2-19.9,19.7-33.1,14.6c-20.9-8.1-48.8-16.4-97-16.4c-63.2,0-94.1,14.3-126.9,29.5C267.5,892.2,230,909.6,155.5,909.6z"/><path d="M970.8,280.8L789,99c-13.5-13.4-32.2-20.4-51.5-19c-1.8-0.1-3.6-0.4-5.3-0.4h-96.7l-6.8,3.8c-35.7,19.9-81.5,30.8-128.7,30.8s-93-10.9-128.7-30.8l-6.8-3.8h-96.7c-1.6,0-3.5,0.2-5.3,0.4c-19.4-1.4-38.1,5.5-51.5,19L29.2,280.8c-25.6,25.6-25.6,67.3,0.3,92.7l96.2,96.2l0,0c0.2,0.2,0.3,0.4,0.5,0.6c11.8,11.8,31,11.8,42.8,0c11.8-11.8,11.8-31,0-42.8c-0.6-0.6-1.4-1.1-2-1.7l-92.8-94.1c-2-2.4-2-6,0.1-8l179.9-181.3c1.9-1.6,3.6-1.6,4.9-1.5l4.2,0.5l4.1-0.5c0.5-0.1,0.6-0.1,1-0.1h80.5c43.3,22.6,96.7,34.7,151.1,34.7c54.4,0,108.1-12.1,151.4-34.7h80.5c0.4,0,0.5,0,1,0.1l4.1,0.5l4.2-0.5c1.3-0.1,3-0.1,4.9,1.5l179.9,181.3c2.1,2,2.1,5.7,0.1,8l-129.7,131c-1.3,1.3-3,1.6-4,1.6c-1,0-2.5-0.4-3.9-1.5l-49.8-47.5v438.2c0,3.4-2.9,6.4-6.3,6.4H586.6l-0.4,60.3h146.1c36.6,0,66.1-29.7,66.1-66.1V523.7c15.5-1.3,29.8-7.9,40.9-19l131.2-131.2C996.4,348.1,996.4,306.5,970.8,280.8z"/></g>
</svg>