<?xml version="1.0" encoding="iso-8859-1"?>
<!-- Generator: Adobe Illustrator 18.0.0, SVG Export Plug-In . SVG Version: 6.00 Build 0)  -->
<!DOCTYPE svg PUBLIC "-//W3C//DTD SVG 1.1//EN" "http://www.w3.org/Graphics/SVG/1.1/DTD/svg11.dtd">
<svg version="1.1" id="Capa_1" xmlns="http://www.w3.org/2000/svg" xmlns:xlink="http://www.w3.org/1999/xlink" x="0px" y="0px"
	 viewBox="0 0 479.285 479.285" style="enable-background:new 0 0 479.285 479.285;" xml:space="preserve">
<g>
	<path d="M444.64,358.811h-21.544c-18.909,0-34.319,13.234-34.632,29.602c0.313,16.367,15.721,29.601,34.63,29.601l21.544,0.002
		c18.91,0,34.32-13.233,34.633-29.602C478.958,372.045,463.549,358.811,444.64,358.811z"/>
	<path d="M444.638,61.271h-21.544c-19.104,0-34.645,13.506-34.645,30.105v257.355c9.528-6.948,21.563-11.113,34.646-11.113h21.544
		c13.082,0,25.117,4.165,34.645,11.113V91.377C479.285,74.776,463.742,61.271,444.638,61.271z"/>
	<rect x="120.092" y="141.804" width="247.165" height="187.068"/>
	<path d="M367.257,83.673H64.137l-53.54,0.001C4.743,83.674,0,88.419,0,94.271c0,5.853,4.745,10.596,10.597,10.596l42.943-0.001
		v35.304H10.597C4.745,140.169,0,144.914,0,150.766c0,5.852,4.745,10.597,10.597,10.597H53.54v35.301H10.597
		C4.745,196.663,0,201.408,0,207.26c0,5.852,4.745,10.597,10.597,10.597H53.54v35.303H10.597C4.745,253.159,0,257.903,0,263.755
		c0,5.852,4.745,10.597,10.597,10.597H53.54v35.302H10.597C4.745,309.653,0,314.397,0,320.249c0,5.852,4.745,10.597,10.597,10.597
		H53.54v34.966H10.597C4.745,365.811,0,370.557,0,376.408c0,5.852,4.745,10.597,10.597,10.597h53.54
		c0.007,0,0.013-0.001,0.021-0.001h303.1v-36.939l-257.762,0.001c-2.811,0-5.505-1.116-7.493-3.103
		c-1.986-1.987-3.103-4.682-3.103-7.492V131.209c0-5.852,4.744-10.597,10.596-10.597l257.762-0.002V83.673z"/>
</g>
<g>
</g>
<g>
</g>
<g>
</g>
<g>
</g>
<g>
</g>
<g>
</g>
<g>
</g>
<g>
</g>
<g>
</g>
<g>
</g>
<g>
</g>
<g>
</g>
<g>
</g>
<g>
</g>
<g>
</g>
</svg>
