<?xml version="1.0" encoding="iso-8859-1"?>
<!-- Generator: Adobe Illustrator 18.1.1, SVG Export Plug-In . SVG Version: 6.00 Build 0)  -->
<svg version="1.1" id="Capa_1" xmlns="http://www.w3.org/2000/svg" xmlns:xlink="http://www.w3.org/1999/xlink" x="0px" y="0px"
	 viewBox="0 0 362 362" style="enable-background:new 0 0 362 362;" xml:space="preserve">
<g>
	<g id="Layer_5_44_">
		<g>
			<path d="M312,0H50C30.701,0,15,15.701,15,35v292c0,19.299,15.701,35,35,35h262c19.299,0,35-15.701,35-35V35
				C347,15.701,331.299,0,312,0z M210.845,48.213h46c3.866,0,7,3.134,7,7s-3.134,7-7,7h-46c-3.866,0-7-3.134-7-7
				S206.979,48.213,210.845,48.213z M138.002,314.281c-22.055,0-39.997-17.942-39.997-39.997c0-12.925,6.165-24.43,15.706-31.744
				c2.398-1.839,7.791-5.827,7.791-10.677c0-40.768,0-163.068,0-163.068c0-9.112,7.388-16.5,16.5-16.5s16.5,7.388,16.5,16.5
				c0,0,0,122.301,0,163.067c0,5.351,5.302,8.784,7.666,10.582c9.613,7.31,15.832,18.859,15.832,31.84
				C178,296.339,160.057,314.281,138.002,314.281z M256.845,238.213h-46c-3.866,0-7-3.134-7-7s3.134-7,7-7h46c3.866,0,7,3.134,7,7
				S260.711,238.213,256.845,238.213z M296.845,194.213h-86c-3.866,0-7-3.134-7-7s3.134-7,7-7h86c3.866,0,7,3.134,7,7
				S300.711,194.213,296.845,194.213z M203.845,143.213c0-3.866,3.134-7,7-7h46c3.866,0,7,3.134,7,7s-3.134,7-7,7h-46
				C206.979,150.213,203.845,147.079,203.845,143.213z M296.845,106.213h-86c-3.866,0-7-3.134-7-7s3.134-7,7-7h86
				c3.866,0,7,3.134,7,7S300.711,106.213,296.845,106.213z"/>
		</g>
	</g>
</g>
<g>
</g>
<g>
</g>
<g>
</g>
<g>
</g>
<g>
</g>
<g>
</g>
<g>
</g>
<g>
</g>
<g>
</g>
<g>
</g>
<g>
</g>
<g>
</g>
<g>
</g>
<g>
</g>
<g>
</g>
</svg>
