<?xml version="1.0" encoding="iso-8859-1"?>
<!-- Generator: Adobe Illustrator 18.0.0, SVG Export Plug-In . SVG Version: 6.00 Build 0)  -->
<!DOCTYPE svg PUBLIC "-//W3C//DTD SVG 1.1//EN" "http://www.w3.org/Graphics/SVG/1.1/DTD/svg11.dtd">
<svg version="1.1" id="Capa_1" xmlns="http://www.w3.org/2000/svg" xmlns:xlink="http://www.w3.org/1999/xlink" x="0px" y="0px"
	 viewBox="0 0 297 297" style="enable-background:new 0 0 297 297;" xml:space="preserve">
<g>
	<path d="M51.477,152.75H6.024c-2.337,0-4.464,1.12-5.455,3.237c-0.992,2.116-0.669,4.499,0.827,6.295l14.057,16.816L1.25,197.528
		c-1.4,1.819-1.644,4.377-0.63,6.436c1.014,2.059,3.109,3.464,5.405,3.464h45.453V152.75z"/>
	<path d="M66.635,203.524c0,1.652,1.195,3.171,2.921,3.458c1.726,0.288,3.431-0.747,3.969-2.322
		c13.605-39.736,47.898-53.895,75.455-53.895c27.548,0,61.831,14.158,75.436,53.895c0.477,1.392,1.769,2.335,3.232,2.37l0.281-0.047
		c1.882-0.313,2.571-2.059,2.571-3.459v-55.767c-6.372-18.324-17.698-33.367-32.818-43.524
		c-14.28-9.592-31.143-14.662-48.764-14.662c-17.652,0-34.531,5.07-48.811,14.662c-15.514,10.422-27.191,25.627-33.473,43.973
		V203.524z"/>
	<path d="M245.477,207.429h45.498c2.295,0,4.391-1.406,5.405-3.464c1.014-2.059,0.769-4.617-0.63-6.436l-14.203-18.431
		l14.058-16.816c1.496-1.796,1.818-4.179,0.827-6.295c-0.991-2.117-3.118-3.237-5.455-3.237h-45.498V207.429z"/>
</g>
<g>
</g>
<g>
</g>
<g>
</g>
<g>
</g>
<g>
</g>
<g>
</g>
<g>
</g>
<g>
</g>
<g>
</g>
<g>
</g>
<g>
</g>
<g>
</g>
<g>
</g>
<g>
</g>
<g>
</g>
</svg>
