<?xml version="1.0"?>
<svg xmlns="http://www.w3.org/2000/svg" viewBox="0 0 50 50">
    <path style="line-height:normal;text-indent:0;text-align:start;text-decoration-line:none;text-decoration-style:solid;text-decoration-color:#000;text-transform:none;block-progression:tb;isolation:auto;mix-blend-mode:normal" d="M 44 9 C 42.021 9 40.175547 9.9800469 39.060547 11.623047 C 38.426547 12.559047 37.965531 13.560344 37.519531 14.527344 C 37.228531 15.158344 36.953578 15.753594 36.642578 16.308594 C 36.610578 16.365594 33.256 22 26 22 C 25.185 22 23.326656 21.4255 22.347656 21.0625 C 22.154656 20.9905 21.944141 20.979203 21.744141 21.033203 C 20.503141 21.359203 17.5 22.167 16 23 C 16.411 22.432 18.044078 21.1965 18.580078 20.8125 C 18.974078 20.5325 19.109297 20.011219 18.904297 19.574219 C 18.698297 19.136219 18.212187 18.910203 17.742188 19.033203 L 17.539062 19.087891 C 16.022063 19.485891 12.484797 20.416641 9.8417969 23.181641 C 13.647797 26.191641 18.185 29 24 29 C 33.751 29 39.322406 25.805578 42.066406 18.642578 C 42.264406 18.126578 42.845422 17.870406 43.357422 18.066406 C 43.873422 18.263406 44.131594 18.841422 43.933594 19.357422 C 40.892594 27.300422 34.558 31 24 31 C 18.105039 31 13.366771 28.332642 9.5957031 25.503906 A 1.0006071 1.0006071 0 0 0 9.390625 25.308594 C 4.3470044 21.746688 1.8632812 17.496094 1.8632812 17.496094 A 1.0001 1.0001 0 0 0 0.94921875 16.988281 A 1.0001 1.0001 0 0 0 0.13671875 18.503906 C 0.13671875 18.503906 2.0548263 21.7533 5.8515625 25.052734 C 5.2494389 26.312701 4.1205059 29.546144 6.109375 33.453125 A 1.0001 1.0001 0 1 0 7.890625 32.546875 C 6.4130609 29.644314 6.962201 27.422252 7.4316406 26.326172 C 7.6373974 26.482435 7.8284484 26.640679 8.0429688 26.794922 C 8.4924513 35.168968 15.902958 40.34956 22.908203 40.996094 C 22.939203 40.999094 22.97 41 23 41 C 23.385 41 23.738297 40.778781 23.904297 40.425781 C 24.061297 40.090781 24.019687 39.69825 23.804688 39.40625 C 23.714688 39.23825 22.283 36.705 22 36 C 23.417 37.833 27.335609 40.765563 27.474609 40.851562 C 27.663609 40.967562 27.887375 41.017141 28.109375 40.994141 C 38.207375 39.879141 50 32.403 50 15 C 50 11.691 47.309 9 44 9 z" font-weight="400" font-family="sans-serif" white-space="normal" overflow="visible"/>
</svg>
