<?xml version="1.0" encoding="UTF-8"?>
<svg width="1923px" height="527px" viewBox="0 0 1923 527" version="1.1" xmlns="http://www.w3.org/2000/svg" xmlns:xlink="http://www.w3.org/1999/xlink">
    <!-- Generator: Sketch 46.2 (44496) - http://www.bohemiancoding.com/sketch -->
    <title>koa-logo-final</title>
    <desc>Created with Sketch.</desc>
    <defs></defs>
    <g id="Page-1" stroke="none" stroke-width="1" fill="none" fill-rule="evenodd">
        <g id="koa-logo-final" fill="#535486">
            <polygon id="Fill-1" points="0 517 54 517 54 14 0 14"></polygon>
            <polygon id="Fill-3" points="411.176224 14 334.833971 14 99 265.364388 347.045148 517 427 517 170.147278 265.665748"></polygon>
            <path d="M829.807039,20.1619129 C797.858939,33.5431825 770.144563,52.204953 747.324492,75.6971819 L747.324492,75.6971819 C724.504421,99.1594079 706.398496,127.272075 693.517166,159.225107 L693.517166,159.225107 C680.575784,191.118133 674,226.19146 674,263.484999 L674,263.484999 C674,300.748534 680.575784,335.821862 693.48714,367.74489 L693.48714,367.74489 C706.398496,399.697922 724.504421,427.840592 747.324492,451.302818 L747.324492,451.302818 C770.144563,474.765044 797.858939,493.426815 829.807039,506.778081 L829.807039,506.778081 C861.785165,520.189354 897.36646,527 935.5,527 L935.5,527 C973.63354,527 1009.18481,520.189354 1041.22299,506.778081 L1041.22299,506.778081 C1073.17109,493.426815 1100.91549,474.735041 1123.64548,451.302818 L1123.64548,451.302818 C1146.4055,427.870595 1164.54145,399.787931 1177.48283,367.74489 L1177.48283,367.74489 C1190.42422,335.791859 1197,300.688528 1197,263.484999 L1197,263.484999 C1197,226.281469 1190.42422,191.178138 1177.48283,159.225107 L1177.48283,159.225107 C1164.54145,127.242072 1146.4055,99.1294051 1123.64548,75.667179 L1123.64548,75.667179 C1100.91549,52.2349559 1073.17109,33.5731853 1041.22299,20.1619129 L1041.22299,20.1619129 C1009.21484,6.81064617 973.663566,0 935.5,0 L935.5,0 C897.336434,0 861.785165,6.81064617 829.807039,20.1619129 M852.176714,459.313578 C827.585084,448.092514 806.176254,432.67105 788.550752,413.499231 L788.550752,413.499231 C770.985303,394.477427 757.203181,371.705266 747.654782,345.842812 L747.654782,345.842812 C738.166437,320.160376 733.362212,292.437746 733.362212,263.484999 L733.362212,263.484999 C733.362212,234.532252 738.166437,206.839624 747.654782,181.127185 L747.654782,181.127185 C757.203181,155.294734 770.955276,132.49257 788.550752,113.440763 L788.550752,113.440763 C806.176254,94.3289496 827.585084,78.9074865 852.176714,67.656419 L852.176714,67.656419 C876.858422,56.315343 904.903089,50.5847993 935.5,50.5847993 L935.5,50.5847993 C966.096911,50.5847993 994.111551,56.315343 1018.82329,67.656419 L1018.82329,67.656419 C1043.41492,78.9074865 1064.85377,94.3289496 1082.44925,113.440763 L1082.44925,113.440763 C1100.07475,132.552576 1113.82685,155.324737 1123.34522,181.127185 L1123.34522,181.127185 C1132.83356,206.929633 1137.66781,234.62226 1137.66781,263.484999 L1137.66781,263.484999 C1137.66781,292.37774 1132.83356,320.070367 1123.34522,345.81281 L1123.34522,345.81281 C1113.82685,371.675263 1100.07475,394.417421 1082.44925,413.559237 L1082.44925,413.559237 C1064.79372,432.67105 1043.38489,448.092514 1018.82329,459.313578 L1018.82329,459.313578 C994.081525,470.654654 966.066885,476.415201 935.5,476.415201 L935.5,476.415201 C904.933115,476.415201 876.888449,470.654654 852.176714,459.313578" id="Fill-5"></path>
            <polygon id="Fill-7" points="1654.861 14 1434 517 1499.02979 517 1573.01057 332.164829 1672.67285 89.6760336 1682.7352 89.6760336 1686.12936 94.3473936 1857.78999 517 1923 517 1708.47678 14"></polygon>
            <polygon id="Fill-9" points="1598 391 1762 391 1762 350 1598 350"></polygon>
        </g>
    </g>
</svg>