<?xml version='1.0' encoding='iso-8859-1'?>
<!DOCTYPE svg PUBLIC '-//W3C//DTD SVG 1.1//EN' 'http://www.w3.org/Graphics/SVG/1.1/DTD/svg11.dtd'>
<svg version="1.1" xmlns="http://www.w3.org/2000/svg" viewBox="0 0 297 297" xmlns:xlink="http://www.w3.org/1999/xlink" enable-background="new 0 0 297 297">
  <g>
    <g>
      <path d="m0,286.849l213.614-213.127h-111.715l-101.899,101.9v111.227zm43.468-88.583l-6.678,6.679c-1.435,1.435-3.316,2.152-5.195,2.152-1.88,0-3.759-0.717-5.194-2.151-2.87-2.869-2.87-7.52-0.001-10.389l6.678-6.679c2.87-2.87 7.52-2.869 10.389-0.001 2.869,2.869 2.869,7.521 0.001,10.389zm29.684-29.682l-6.679,6.679c-1.435,1.434-3.315,2.151-5.195,2.151-1.88,0-3.76-0.717-5.195-2.151-2.869-2.87-2.869-7.521 0-10.39l6.679-6.679c2.87-2.868 7.521-2.868 10.39,0 2.869,2.87 2.869,7.52 0,10.39zm29.684-29.683l-6.679,6.679c-1.435,1.434-3.315,2.151-5.195,2.151-1.88,0-3.76-0.717-5.195-2.151-2.869-2.87-2.869-7.521 0-10.39l6.679-6.679c2.87-2.868 7.521-2.868 10.39,0 2.868,2.869 2.868,7.52 0,10.39zm23.004-23.005c-1.435,1.434-3.316,2.151-5.195,2.151-1.88,0-3.76-0.717-5.195-2.151-2.869-2.87-2.869-7.521 0-10.39l6.679-6.679c2.87-2.868 7.521-2.868 10.39,0 2.869,2.87 2.869,7.521 0,10.39l-6.679,6.679z"/>
    </g>
    <g>
      <path d="m95.78,36.911h-65.308c-6.654,0-12.068,5.413-12.068,12.068v3.753h89.442v-3.753c0-6.654-5.413-12.068-12.066-12.068z"/>
    </g>
    <g>
      <path d="M89.442,15.922v-0.955c0-6.654-5.413-12.068-12.068-12.068H48.878c-6.654,0-12.068,5.413-12.068,12.068v0.955H89.442z"/>
    </g>
    <g>
      <path d="M10.392,73.722C4.662,73.722,0,78.384,0,84.114v70.727l81.119-81.12H10.392z"/>
    </g>
    <g>
      <path d="m297,84.114c0-5.73-4.662-10.392-10.392-10.392h-52.213l-220.379,220.378h113.416l169.568-169.567v-40.419zm-197.833,194.13l-6.678,6.678c-1.435,1.434-3.316,2.151-5.195,2.151s-3.76-0.717-5.195-2.151c-2.869-2.87-2.869-7.521 0-10.39l6.678-6.678c2.87-2.868 7.521-2.868 10.39,0 2.869,2.869 2.869,7.52-1.42109e-14,10.39zm29.685-29.685l-6.679,6.679c-1.435,1.434-3.315,2.151-5.195,2.151s-3.76-0.717-5.195-2.151c-2.869-2.87-2.869-7.52 0-10.39l6.679-6.679c2.869-2.868 7.521-2.868 10.39,0 2.868,2.87 2.868,7.521-2.84217e-14,10.39zm29.683-29.683l-6.679,6.679c-1.435,1.434-3.315,2.151-5.195,2.151-1.88,0-3.76-0.717-5.195-2.151-2.869-2.87-2.869-7.52 0-10.39l6.679-6.679c2.87-2.868 7.521-2.868 10.39,0 2.869,2.869 2.869,7.52-2.84217e-14,10.39zm29.684-29.683l-6.679,6.679c-1.435,1.434-3.316,2.151-5.195,2.151-1.88,0-3.76-0.717-5.195-2.151-2.869-2.87-2.869-7.521 0-10.39l6.679-6.679c2.87-2.868 7.521-2.868 10.39,0 2.868,2.869 2.868,7.52 0,10.39zm29.683-29.684l-6.679,6.679c-1.435,1.434-3.315,2.151-5.195,2.151-1.88,0-3.76-0.717-5.195-2.151-2.869-2.87-2.869-7.521 0-10.39l6.679-6.679c2.87-2.868 7.521-2.868 10.39,0 2.869,2.87 2.869,7.521 0,10.39zm29.683-29.683l-6.679,6.679c-1.435,1.434-3.315,2.151-5.195,2.151-1.88,0-3.76-0.717-5.195-2.151-2.869-2.87-2.869-7.521 0-10.39l6.679-6.679c2.87-2.868 7.52-2.868 10.39,0 2.869,2.869 2.869,7.52-2.84217e-14,10.39zm29.684-29.684l-6.679,6.679c-1.435,1.434-3.315,2.151-5.195,2.151-1.88,0-3.76-0.717-5.195-2.151-2.869-2.87-2.869-7.521 0-10.39l6.679-6.679c2.87-2.868 7.521-2.868 10.39,0 2.868,2.87 2.868,7.521 0,10.39z"/>
    </g>
    <g>
      <path d="m297,283.708v-138.395l-148.788,148.787h138.396c5.73,0 10.392-4.662 10.392-10.392zm-70.884-8.845l-6.679,6.679c-1.435,1.434-3.316,2.151-5.195,2.151-1.88,0-3.76-0.717-5.195-2.151-2.869-2.87-2.869-7.521 0-10.39l6.679-6.679c2.87-2.868 7.521-2.868 10.39,0 2.868,2.87 2.868,7.521-2.84217e-14,10.39zm29.683-29.683l-6.679,6.679c-1.435,1.434-3.315,2.151-5.195,2.151-1.88,0-3.76-0.718-5.195-2.151-2.869-2.87-2.869-7.521 0-10.39l6.679-6.679c2.87-2.868 7.52-2.868 10.39,0 2.869,2.87 2.869,7.52-2.84217e-14,10.39zm23.004-23.004c-1.435,1.434-3.315,2.151-5.195,2.151-1.88,0-3.76-0.717-5.195-2.151-2.869-2.87-2.869-7.521 0-10.39l6.679-6.679c2.87-2.868 7.521-2.868 10.39,0 2.869,2.87 2.869,7.52 0,10.39l-6.679,6.679z"/>
    </g>
  </g>
</svg>
